HIERARCHY
ROOT RootJoint
{
    OFFSET   0.000000   0.000000   0.000000
    CHANNELS 6 Xposition Yposition Zposition Xrotation Yrotation Zrotation
    JOINT pelvis_lowerback
    {
        OFFSET   0.000000   0.093605   0.000000
        CHANNELS 3 Xrotation Yrotation Zrotation
        JOINT lowerback_torso
        {
            OFFSET   0.000000   0.100000   0.000000
            CHANNELS 3 Xrotation Yrotation Zrotation
            JOINT torso_head
            {
                OFFSET   0.000000   0.282350   0.000000
                CHANNELS 3 Xrotation Yrotation Zrotation
                End Site
                {
                    OFFSET   0.000000   0.192650   0.000000
                }
            }
            JOINT rTorso_Clavicle
            {
                OFFSET  -0.001000   0.157500   0.000000
                CHANNELS 3 Xrotation Yrotation Zrotation
                JOINT rShoulder
                {
                    OFFSET  -0.117647   0.000000   0.000000
                    CHANNELS 3 Xrotation Yrotation Zrotation
                    JOINT rElbow
                    {
                        OFFSET  -0.245000   0.000000   0.000000
                        CHANNELS 3 Xrotation Yrotation Zrotation
                        JOINT rWrist
                        {
                            OFFSET  -0.240000   0.000000   0.000000
                            CHANNELS 3 Xrotation Yrotation Zrotation
                            End Site
                            {
                                OFFSET  -0.116353  -0.002500   0.000000
                            }
                        }
                    }
                }
            }
            JOINT lTorso_Clavicle
            {
                OFFSET   0.001000   0.157500   0.000000
                CHANNELS 3 Xrotation Yrotation Zrotation
                JOINT lShoulder
                {
                    OFFSET   0.117647   0.000000   0.000000
                    CHANNELS 3 Xrotation Yrotation Zrotation
                    JOINT lElbow
                    {
                        OFFSET   0.245000   0.000000   0.000000
                        CHANNELS 3 Xrotation Yrotation Zrotation
                        JOINT lWrist
                        {
                            OFFSET   0.240000   0.000000   0.000000
                            CHANNELS 3 Xrotation Yrotation Zrotation
                            End Site
                            {
                                OFFSET   0.116353  -0.002500   0.000000
                            }
                        }
                    }
                }
            }
        }
    }
    JOINT rHip
    {
        OFFSET  -0.100000  -0.051395   0.000000
        CHANNELS 3 Xrotation Yrotation Zrotation
        JOINT rKnee
        {
            OFFSET   0.000000  -0.410000   0.000000
            CHANNELS 3 Xrotation Yrotation Zrotation
            JOINT rAnkle
            {
                OFFSET   0.000000  -0.390000   0.000000
                CHANNELS 3 Xrotation Yrotation Zrotation
                JOINT rToeJoint
                {
                    OFFSET   0.000000  -0.050000   0.130000
                    CHANNELS 3 Xrotation Yrotation Zrotation
                    End Site
                    {
                        OFFSET  -0.010000   0.002000   0.060000
                    }
                }
            }
        }
    }
    JOINT lHip
    {
        OFFSET   0.100000  -0.051395   0.000000
        CHANNELS 3 Xrotation Yrotation Zrotation
        JOINT lKnee
        {
            OFFSET   0.000000  -0.410000   0.000000
            CHANNELS 3 Xrotation Yrotation Zrotation
            JOINT lAnkle
            {
                OFFSET   0.000000  -0.390000   0.000000
                CHANNELS 3 Xrotation Yrotation Zrotation
                JOINT lToeJoint
                {
                    OFFSET   0.000000  -0.050000   0.130000
                    CHANNELS 3 Xrotation Yrotation Zrotation
                    End Site
                    {
                        OFFSET   0.010000   0.002000   0.060000
                    }
                }
            }
        }
    }
}
MOTION
Frames: 7
Frame Time:   0.008333
 -2.387026   0.917109   4.030758   5.341928  -2.856237  -0.690454  -3.747705   0.705048  -1.277170  -1.702780  -1.802783   0.892353  -0.037151  -1.731816  -0.876147  -5.730292   3.314295  -6.681882 -25.761000   7.870523   6.399889 -179.993480  87.174151 179.996964   6.305406   8.841311 -13.077075  -6.707083  -3.152800   9.319111 -22.972599  -7.069583  -5.616407 179.952605 -88.549957 179.950767   4.089650  -9.607446   7.659706  -2.173009  -1.990348  -3.439729   0.036544   0.000001  -0.000006  -2.749376  -3.145621   2.373896  -0.315210   0.000051  -0.000051  -0.003231   0.525342   6.012453   0.803963   0.000010  -0.000007  -6.273460   2.557522  -0.357954   0.202975   0.000001   0.000019
 -2.387004   0.917096   4.031024   5.292030  -2.819964  -0.690622  -3.735896   0.694439  -1.281820  -1.689400  -1.836424   0.897332   0.032504  -1.728207  -0.868672  -5.780295   3.245310  -6.623378 -26.040108   7.860303   6.646785 -179.992656  87.140608 179.995503   6.298022   8.784081 -13.117236  -6.757501  -3.116252   9.261957 -23.318896  -7.048303  -5.866766 179.950292 -88.614380 179.948947   4.073410  -9.594283   7.766991  -2.103452  -2.018267  -3.449236   0.052491   0.000001  -0.000003  -2.783367  -3.154571   2.413298  -0.329680   0.000045  -0.000041   0.083981   0.495870   6.004964   0.764450   0.000006  -0.000007  -6.270693   2.565551  -0.343813   0.212489   0.000000   0.000016
 -2.386955   0.917070   4.031272   5.239871  -2.778378  -0.697706  -3.727026   0.681712  -1.279413  -1.669438  -1.871287   0.908884   0.098861  -1.724723  -0.859935  -5.820465   3.176038  -6.494384 -26.298954   7.837028   6.917338 -179.991022  87.089060 179.993437   6.308258   8.826736 -13.261461  -6.798839  -3.079130   9.138744 -23.640634  -7.013951  -6.139308 179.951127 -88.664319 179.950184   4.052217  -9.579903   7.958668  -2.035109  -2.048278  -3.453631   0.075116   0.000003  -0.000000  -2.818725  -3.166693   2.454528  -0.342973   0.000040  -0.000032   0.171198   0.469745   6.002256   0.726265   0.000002  -0.000009  -6.279693   2.574323  -0.332852   0.239710  -0.000001   0.000018
 -2.386887   0.917056   4.031490   5.187744  -2.743155  -0.697244  -3.716174   0.672568  -1.282865  -1.642866  -1.901948   0.920810   0.158365  -1.721371  -0.851102  -5.847262   3.106982  -6.336680 -26.532034   7.804188   7.189252 -179.990142  87.037864 179.992226   6.304661   8.817493 -13.397561  -6.828784  -3.038518   8.990999 -23.933370  -6.970085  -6.410665 179.952774 -88.711722 179.952156   4.030422  -9.567780   8.143389  -1.971470  -2.074313  -3.466687   0.099900   0.000004   0.000002  -2.851922  -3.175983   2.492649  -0.354144   0.000035  -0.000026   0.254259   0.438059   5.993068   0.693225   0.000000  -0.000007  -6.278176   2.574055  -0.322948   0.246673  -0.000001   0.000014
 -2.386800   0.917044   4.031676   5.137705  -2.711063  -0.695792  -3.701554   0.664769  -1.284408  -1.610822  -1.929567   0.933295   0.212527  -1.718224  -0.842946  -5.865437   3.038769  -6.171382 -26.743664   7.765171   7.452152 -179.990054  86.992248 179.991861   6.300651   8.809744 -13.514963  -6.851004  -2.995767   8.836209 -24.201128  -6.920885  -6.672379 179.954899 -88.757604 179.954539   4.008936  -9.558053   8.307099  -1.912849  -2.098338  -3.481376   0.124182   0.000005   0.000003  -2.881709  -3.184032   2.528070  -0.363627   0.000030  -0.000021   0.331040   0.408393   5.982114   0.664326  -0.000002  -0.000005  -6.276045   2.574286  -0.315117   0.251693  -0.000001   0.000011
 -2.386699   0.917035   4.031830   5.090897  -2.681227  -0.693403  -3.683118   0.657948  -1.284717  -1.574715  -1.954747   0.946419   0.262750  -1.715274  -0.835235  -5.878176   2.972405  -6.006898 -26.937408   7.723283   7.702312 -179.990429  86.951048 179.991999   6.296651   8.803198 -13.616079  -6.868237  -2.952621   8.682527 -24.447537  -6.869515  -6.920918 179.957389 -88.801650 179.957224   3.988133  -9.550236   8.452471  -1.859722  -2.120791  -3.497372   0.147128   0.000007   0.000004  -2.907991  -3.191331   2.560794  -0.371651   0.000025  -0.000017   0.401194   0.380539   5.969636   0.637798  -0.000003  -0.000004  -6.272611   2.574450  -0.308261   0.255318  -0.000001   0.000009
 -2.386587   0.917027   4.031957   5.047774  -2.653327  -0.690212  -3.661324   0.651935  -1.284001  -1.535816  -1.977806   0.959950   0.309765  -1.712511  -0.827938  -5.887390   2.908878  -5.847520 -27.115821   7.680659   7.938424 -179.991060  86.913507 179.992426   6.292766   8.797524 -13.705041  -6.882154  -2.910428   8.534035 -24.675303  -6.818011  -7.155069 179.960133 -88.843588 179.960114   3.968120  -9.543876   8.583870  -1.811987  -2.141850  -3.514335   0.168390   0.000007   0.000004  -2.931029  -3.198056   2.590914  -0.378420   0.000022  -0.000013   0.464922   0.354322   5.955960   0.612845  -0.000004  -0.000003  -6.267819   2.574488  -0.302091   0.257856  -0.000000   0.000007
